<svg width="57" height="57" viewBox="0 0 57 57" fill="none" xmlns="http://www.w3.org/2000/svg">
<path d="M48.6207 23.9029C48.4642 23.517 48.2157 23.1752 47.8969 22.9073C47.578 22.6394 47.1984 22.4536 46.7913 22.3661C44.4345 21.8571 39.8401 20.5801 35.5881 17.771C31.3361 14.9619 28.3577 11.236 26.9623 9.26599C26.7214 8.92623 26.4014 8.6503 26.0299 8.46209C25.6583 8.27387 25.2466 8.17904 24.8301 8.18581C24.4137 8.19258 24.0052 8.30075 23.64 8.50094C23.2748 8.70113 22.9639 8.98731 22.7342 9.33472L17.8108 16.7871C14.6468 21.5764 12.9515 26.9462 13.0401 31.9053C13.1309 37.0443 15.1131 41.1449 18.6168 43.4596C22.1206 45.7743 26.6727 45.985 31.4326 44.0564C36.0272 42.1951 40.3015 38.5291 43.4655 33.7399L48.3908 26.2848C48.62 25.9365 48.7608 25.5374 48.8008 25.1224C48.8409 24.7073 48.7791 24.2887 48.6207 23.9029ZM21.348 24.7981C21.1849 24.8416 21.0147 24.8524 20.8473 24.8301C20.68 24.8078 20.5186 24.7527 20.3725 24.6681C20.0774 24.4971 19.8624 24.2159 19.7747 23.8863C19.6869 23.5568 19.7337 23.2059 19.9047 22.9108C20.0757 22.6157 20.3569 22.4007 20.6865 22.3129C22.0181 21.968 23.7897 22.3169 25.1019 23.1838C26.4141 24.0507 27.43 25.5434 27.6351 26.9036C27.6592 27.0707 27.6501 27.241 27.6083 27.4046C27.5666 27.5682 27.4931 27.722 27.3919 27.8572C27.2907 27.9924 27.1639 28.1064 27.0187 28.1926C26.8735 28.2787 26.7127 28.3355 26.5456 28.3596C26.3784 28.3836 26.2082 28.3745 26.0446 28.3328C25.8809 28.291 25.7271 28.2175 25.5919 28.1163C25.4567 28.0152 25.3428 27.8883 25.2566 27.7431C25.1704 27.5979 25.1137 27.4372 25.0896 27.27C24.9963 26.6325 24.3776 25.7765 23.6894 25.3218C23.0012 24.8672 21.9648 24.6316 21.348 24.7981ZM29.2149 39.1822C28.0312 39.5311 26.7855 39.6172 25.5651 39.4346C24.3446 39.2519 23.1788 38.8048 22.1491 38.1245C21.1195 37.4443 20.2509 36.5473 19.604 35.4964C18.9572 34.4454 18.5478 33.2659 18.4044 32.0402C18.3724 31.8684 18.3759 31.692 18.4146 31.5216C18.4533 31.3513 18.5264 31.1906 18.6295 31.0496C18.7326 30.9085 18.8634 30.7901 19.0139 30.7014C19.1645 30.6128 19.3316 30.5559 19.5049 30.5342C19.6782 30.5125 19.8542 30.5265 20.0219 30.5753C20.1897 30.6241 20.3456 30.7067 20.4803 30.818C20.6149 30.9294 20.7254 31.067 20.8049 31.2226C20.8844 31.3781 20.9312 31.5483 20.9425 31.7226C21.0403 32.5807 21.3249 33.4069 21.7765 34.143C22.228 34.8792 22.8355 35.5074 23.556 35.9834C24.2766 36.4595 25.0927 36.7717 25.947 36.8983C26.8013 37.0248 27.6729 36.9626 28.5005 36.7159C28.8271 36.6218 29.1776 36.6614 29.4751 36.8258C29.7725 36.9903 29.9924 37.2662 30.0864 37.5927C30.1804 37.9193 30.1408 38.2699 29.9764 38.5673C29.812 38.8647 29.5361 39.0846 29.2095 39.1786L29.2149 39.1822ZM36.167 34.7169C36.0005 34.7415 35.8307 34.7329 35.6675 34.6918C35.5043 34.6507 35.3507 34.5779 35.2157 34.4774C35.0806 34.377 34.9667 34.2509 34.8803 34.1063C34.794 33.9618 34.737 33.8017 34.7126 33.6352C34.6193 32.9977 34.0006 32.1416 33.3124 31.687C32.6242 31.2323 31.5878 30.9968 30.971 31.1633C30.8073 31.2068 30.6365 31.2177 30.4686 31.1953C30.3006 31.1729 30.1387 31.1176 29.9921 31.0326C29.8455 30.9476 29.7171 30.8345 29.6142 30.6999C29.5113 30.5653 29.4359 30.4117 29.3923 30.2479C29.3488 30.0842 29.3379 29.9134 29.3603 29.7455C29.3827 29.5775 29.438 29.4156 29.523 29.269C29.608 29.1224 29.7211 28.994 29.8557 28.8911C29.9903 28.7882 30.1439 28.7128 30.3077 28.6692C31.6339 28.3208 33.4055 28.6696 34.7231 29.5401C36.0406 30.4105 37.0512 31.8997 37.2563 33.2599C37.2812 33.4272 37.2726 33.5977 37.2313 33.7617C37.1899 33.9257 37.1164 34.0798 37.0151 34.2153C36.9139 34.3508 36.7868 34.4648 36.6412 34.5509C36.4957 34.637 36.3345 34.6934 36.167 34.7169Z" fill="white"/>
</svg>
