<svg width="82" height="65" viewBox="0 0 82 65" fill="none" xmlns="http://www.w3.org/2000/svg">
<path d="M5.95282 16.2679C5.50299 19.4545 6.39414 22.5967 8.20545 24.9349C10.3218 27.6653 13.6438 29.3074 17.6326 28.6922L18.0751 28.6244L18.3341 28.9905C20.4155 31.9321 24.474 34.4656 28.4819 36.0539C30.477 36.8494 32.4656 37.4141 34.1623 37.7047C35.7092 37.9639 37.0069 37.9678 37.8064 37.7945C38.2358 37.0983 38.6574 35.8779 38.9231 34.3263C39.2137 32.6297 39.343 30.5664 39.2633 28.4157C39.0926 24.1123 38.0653 19.4439 35.9839 16.5023L35.7249 16.1362L35.9362 15.7415C37.8436 12.1847 37.3993 8.50662 35.53 5.6013C33.9279 3.11515 31.26 1.23006 28.1099 0.590595C29.4892 2.41527 30.6537 3.78378 31.3361 5.23345C32.1705 7.03661 32.0873 8.99858 30.6763 11.6351L30.467 12.0186L30.0202 12.011C29.8089 12.0036 29.6069 12.0092 29.4003 12.0083C29.5083 12.6185 29.5129 13.2627 29.4028 13.9389C29.1841 15.1826 28.1158 15.9188 27.0851 16.1674C26.0498 16.4094 24.8698 16.3222 24.2223 15.4071L24.0512 15.1652L24.0962 14.8684C24.2109 14.1987 24.2777 13.6414 24.3013 13.1342C22.3185 13.978 20.5077 15.2592 19.0456 16.8529C19.5318 16.9993 20.0796 17.1219 20.7493 17.2366L21.0441 17.2928L21.2153 17.5347C21.8628 18.4499 21.5524 19.5916 20.9796 20.4874C20.4022 21.3766 19.3524 22.139 18.1069 21.9314C17.4325 21.8101 16.8266 21.5915 16.2871 21.2865C16.2146 21.4752 16.1467 21.6703 16.0834 21.8721L15.9419 22.2959L15.5105 22.3657C12.5548 22.8188 10.6756 22.2454 9.25747 20.8552C8.11227 19.733 7.21188 18.1777 5.95282 16.2679ZM14.1531 15.6364C14.3807 16.471 14.6767 17.3053 15.0924 18.0314C15.81 19.309 16.8047 20.2434 18.3516 20.5026C18.892 20.6009 19.4111 20.2532 19.7711 19.6944C20.0354 19.2916 20.1073 18.8386 20.0843 18.5704C18.4826 18.2616 17.3665 17.8349 16.3426 17.2057C15.6509 16.7828 14.9449 16.2425 14.1531 15.6364ZM24.7823 8.11571C25.0889 9.06213 25.3649 9.90964 25.5336 10.7026C25.7862 11.8776 25.8171 13.0721 25.5753 14.6852C25.8206 14.7961 26.2717 14.8791 26.7395 14.7639C27.3863 14.6104 27.8869 14.2366 27.974 13.6942C28.2444 12.1492 27.6942 10.9003 26.7282 9.79845C26.1818 9.16485 25.4936 8.60808 24.7823 8.11571ZM18.0271 23.5378L19.7479 24.4587C21.5003 25.3965 23.8892 25.9722 26.0859 26.0267L22.1447 23.4789L22.9377 22.2704L28.4967 25.8709L28.6625 25.8418L28.7042 25.9007L29.6194 25.2531L29.5777 25.1943L29.6603 25.0476L28.115 18.6072L29.5184 18.2616L30.6095 22.826C31.2891 20.7364 31.5411 18.2921 31.2399 16.3275L30.9442 14.3983L36.498 19.1698L36.5489 19.2417C36.8356 19.647 36.9385 20.1529 36.8956 20.6051C36.8507 21.0685 36.6803 21.4932 36.4494 21.9017C35.9943 22.7142 35.2732 23.4697 34.4874 24.1336C34.3593 24.2438 34.2332 24.3429 34.1071 24.4419L34.5638 27.4442C35.0314 26.7603 35.5684 25.9388 36.2246 24.9252L36.802 24.036L37.4172 24.9054C38.3654 26.2455 38.4384 28.2342 38.118 30.1383C37.7865 32.0405 37.0558 33.8916 35.7157 34.8398C34.3757 35.788 32.3869 35.861 30.4828 35.5406C28.5806 35.2091 26.7295 34.4784 25.7814 33.1384L25.1662 32.2689L26.1969 32.0203C27.3711 31.7389 28.3244 31.5058 29.125 31.2924L26.4458 29.8627C26.3104 29.9487 26.175 30.0346 26.0285 30.1187C25.1409 30.6388 24.1885 31.0674 23.2709 31.2262C22.8088 31.3079 22.3517 31.3273 21.8997 31.2154C21.459 31.1055 21.0161 30.8401 20.7294 30.4348L20.6785 30.3629L18.0271 23.5378ZM20.7053 26.4495L21.9449 29.6434C22.0116 29.7237 22.0933 29.7837 22.243 29.815C22.4243 29.8633 22.6933 29.8692 23.0138 29.8092C23.666 29.6911 24.5137 29.3365 25.2875 28.8773C26.0351 28.4366 26.7161 27.9155 27.1612 27.4633C25.0336 27.5757 22.7238 27.2088 20.7053 26.4495ZM32.7987 17.8928C32.8431 20.0489 32.4204 22.3492 31.6063 24.3181C32.181 24.0488 32.8989 23.5801 33.5633 23.0217C34.2538 22.4449 34.8703 21.7634 35.1987 21.1877C35.362 20.9055 35.446 20.6498 35.4608 20.4628C35.481 20.3111 35.4516 20.2142 35.398 20.1246L32.7987 17.8928ZM29.0857 27.3965L28.1563 29.1331L33.8286 32.1727L32.8499 25.8122L30.9029 26.1106L29.0857 27.3965ZM27.8863 33.091C28.6299 33.5458 29.6559 33.9283 30.7275 34.1119C31.9889 34.3279 33.2914 34.2695 34.1724 33.9895L30.9248 32.2556C30.0885 32.5432 29.1025 32.7995 27.8863 33.091ZM36.672 26.8746C35.9924 27.9245 35.4227 28.769 34.8731 29.4619L35.4275 33.1014C35.9847 32.3639 36.4732 31.155 36.6892 29.8936C36.8728 28.8221 36.8535 27.7272 36.672 26.8746Z" fill="white"/>
<path d="M73.6207 31.9029C73.4642 31.517 73.2157 31.1752 72.8969 30.9073C72.578 30.6394 72.1984 30.4536 71.7913 30.3661C69.4345 29.8571 64.8401 28.5801 60.5881 25.771C56.3361 22.9619 53.3577 19.236 51.9623 17.266C51.7214 16.9262 51.4014 16.6503 51.0299 16.4621C50.6583 16.2739 50.2466 16.179 49.8301 16.1858C49.4137 16.1926 49.0052 16.3007 48.64 16.5009C48.2748 16.7011 47.9639 16.9873 47.7342 17.3347L42.8108 24.7871C39.6468 29.5764 37.9515 34.9462 38.0401 39.9053C38.1309 45.0443 40.1131 49.1449 43.6168 51.4596C47.1206 53.7743 51.6727 53.985 56.4326 52.0564C61.0272 50.1951 65.3015 46.5291 68.4655 41.7399L73.3908 34.2848C73.62 33.9365 73.7608 33.5374 73.8008 33.1224C73.8409 32.7073 73.7791 32.2887 73.6207 31.9029ZM46.348 32.7981C46.1849 32.8416 46.0147 32.8524 45.8473 32.8301C45.68 32.8078 45.5186 32.7527 45.3725 32.6681C45.0774 32.4971 44.8624 32.2159 44.7747 31.8863C44.6869 31.5568 44.7337 31.2059 44.9047 30.9108C45.0757 30.6157 45.3569 30.4007 45.6865 30.3129C47.0181 29.968 48.7897 30.3169 50.1019 31.1838C51.4141 32.0507 52.43 33.5434 52.6351 34.9036C52.6592 35.0707 52.6501 35.241 52.6083 35.4046C52.5666 35.5682 52.4931 35.722 52.3919 35.8572C52.2907 35.9924 52.1639 36.1064 52.0187 36.1926C51.8735 36.2787 51.7127 36.3355 51.5456 36.3596C51.3784 36.3836 51.2082 36.3745 51.0446 36.3328C50.8809 36.291 50.7271 36.2175 50.5919 36.1163C50.4567 36.0152 50.3428 35.8883 50.2566 35.7431C50.1704 35.5979 50.1137 35.4372 50.0896 35.27C49.9963 34.6325 49.3776 33.7765 48.6894 33.3218C48.0012 32.8672 46.9648 32.6316 46.348 32.7981ZM54.2149 47.1822C53.0312 47.5311 51.7855 47.6172 50.5651 47.4346C49.3446 47.2519 48.1788 46.8048 47.1491 46.1245C46.1195 45.4443 45.2509 44.5473 44.604 43.4964C43.9572 42.4454 43.5478 41.2659 43.4044 40.0402C43.3724 39.8684 43.3759 39.692 43.4146 39.5216C43.4533 39.3513 43.5264 39.1906 43.6295 39.0496C43.7326 38.9085 43.8634 38.7901 44.0139 38.7014C44.1645 38.6128 44.3316 38.5559 44.5049 38.5342C44.6782 38.5125 44.8542 38.5265 45.0219 38.5753C45.1897 38.6241 45.3456 38.7067 45.4803 38.818C45.6149 38.9294 45.7254 39.067 45.8049 39.2226C45.8844 39.3781 45.9312 39.5483 45.9425 39.7226C46.0403 40.5807 46.3249 41.4069 46.7765 42.143C47.228 42.8792 47.8355 43.5074 48.556 43.9834C49.2766 44.4595 50.0927 44.7717 50.947 44.8983C51.8013 45.0248 52.6729 44.9626 53.5005 44.7159C53.8271 44.6218 54.1776 44.6614 54.4751 44.8258C54.7725 44.9903 54.9924 45.2662 55.0864 45.5927C55.1804 45.9193 55.1408 46.2699 54.9764 46.5673C54.812 46.8647 54.5361 47.0846 54.2095 47.1786L54.2149 47.1822ZM61.167 42.7169C61.0005 42.7415 60.8307 42.7329 60.6675 42.6918C60.5043 42.6507 60.3507 42.5779 60.2157 42.4774C60.0806 42.377 59.9667 42.2509 59.8803 42.1063C59.794 41.9618 59.737 41.8017 59.7126 41.6352C59.6193 40.9977 59.0006 40.1416 58.3124 39.687C57.6242 39.2323 56.5878 38.9968 55.971 39.1633C55.8073 39.2068 55.6365 39.2177 55.4686 39.1953C55.3006 39.1729 55.1387 39.1176 54.9921 39.0326C54.8455 38.9476 54.7171 38.8345 54.6142 38.6999C54.5113 38.5653 54.4359 38.4117 54.3923 38.2479C54.3488 38.0842 54.3379 37.9134 54.3603 37.7455C54.3827 37.5775 54.438 37.4156 54.523 37.269C54.608 37.1224 54.7211 36.994 54.8557 36.8911C54.9903 36.7882 55.1439 36.7128 55.3077 36.6692C56.6339 36.3208 58.4055 36.6696 59.7231 37.5401C61.0406 38.4105 62.0512 39.8997 62.2563 41.2599C62.2812 41.4272 62.2726 41.5977 62.2313 41.7617C62.1899 41.9257 62.1164 42.0798 62.0151 42.2153C61.9139 42.3508 61.7868 42.4648 61.6412 42.5509C61.4957 42.637 61.3345 42.6934 61.167 42.7169Z" fill="white"/>
</svg>
